<svg xmlns="http://www.w3.org/2000/svg" xmlns:xlink="http://www.w3.org/1999/xlink" version="1.1" x="0px" y="0px" viewBox="0 0 100 125" style="enable-background:new 0 0 100 100;" xml:space="preserve"><path d="M22.6,53.5c2.8,0,5.6-0.9,7.8-2.6c2.8,6.7,9.4,11.1,16.8,11.1c7.7,0,14.5-4.8,17.1-11.9c2.5,2.7,6,4.3,9.7,4.3  c7.2,0,13.1-5.9,13.1-13.1c0-5.8-3.8-10.8-9.2-12.5c-0.2-9.1-7.7-16.5-16.9-16.5c-6,0-11.6,3.2-14.6,8.4c-2.8-3.5-7-5.6-11.5-5.6  c-7.1,0-13.2,5.1-14.4,12.1c-6.4,1.1-11.1,6.5-11.1,13.1C9.4,47.6,15.3,53.5,22.6,53.5z M21.4,29.1c0.5,0,0.8-0.4,0.9-0.9  c0.8-6.3,6.2-11.1,12.6-11.1c4.4,0,8.4,2.3,10.8,6c0.2,0.3,0.5,0.5,0.9,0.5c0.4,0,0.7-0.2,0.8-0.6c2.4-5.3,7.7-8.7,13.6-8.7  c8.2,0,14.9,6.7,14.9,14.9l0,0.1c0,0.1,0,0.1,0,0.2c0,0.5,0.3,0.9,0.8,1c5,1.2,8.5,5.7,8.5,10.8c0,6.1-5,11.1-11.1,11.1  c-3.7,0-7.2-1.9-9.2-5c-0.2-0.3-0.6-0.5-1-0.4c-0.4,0.1-0.7,0.4-0.8,0.7c-1.8,7.2-8.3,12.3-15.7,12.3c-7,0-13.2-4.5-15.4-11.1  c-0.1-0.3-0.4-0.6-0.7-0.7c-0.1,0-0.2,0-0.2,0c-0.2,0-0.5,0.1-0.7,0.3c-2.1,1.9-4.8,2.9-7.6,2.9c-6.2,0-11.2-5-11.2-11.2  C11.4,34.5,15.7,29.7,21.4,29.1z" stroke="#f8f5e9" fill="#f8f5e9"/><path d="M68.6,59.5c-0.6,0-1,0.4-1,1v18.3c0,0.6,0.4,1,1,1s1-0.4,1-1V60.5C69.6,60,69.2,59.5,68.6,59.5z" stroke="#f8f5e9" fill="#f8f5e9"/><path d="M67.6,87.3c0,0.6,0.4,1,1,1s1-0.4,1-1V83c0-0.6-0.4-1-1-1s-1,0.4-1,1V87.3z" stroke="#f8f5e9" fill="#f8f5e9"/><path d="M21.1,87.3c0,0.6,0.4,1,1,1s1-0.4,1-1v-8.7c0-0.6-0.4-1-1-1s-1,0.4-1,1V87.3z" stroke="#f8f5e9" fill="#f8f5e9"/><path d="M60,87.3c0,0.6,0.4,1,1,1s1-0.4,1-1v-8.7c0-0.6-0.4-1-1-1s-1,0.4-1,1V87.3z" stroke="#f8f5e9" fill="#f8f5e9"/><path d="M28.5,87.3c0,0.6,0.4,1,1,1s1-0.4,1-1V74.9c0-0.6-0.4-1-1-1s-1,0.4-1,1V87.3z" stroke="#f8f5e9" fill="#f8f5e9"/><path d="M29.5,72c0.6,0,1-0.4,1-1V60.5c0-0.6-0.4-1-1-1s-1,0.4-1,1V71C28.5,71.6,29,72,29.5,72z" stroke="#f8f5e9" fill="#f8f5e9"/><path d="M45.8,73.9c0.6,0,1-0.4,1-1v-4.3c0-0.6-0.4-1-1-1s-1,0.4-1,1v4.3C44.8,73.4,45.3,73.9,45.8,73.9z" stroke="#f8f5e9" fill="#f8f5e9"/><path d="M44.8,87.3c0,0.6,0.4,1,1,1s1-0.4,1-1V76.8c0-0.6-0.4-1-1-1s-1,0.4-1,1V87.3z" stroke="#f8f5e9" fill="#f8f5e9"/><path d="M61,75.6c0.6,0,1-0.4,1-1V64.2c0-0.6-0.4-1-1-1s-1,0.4-1,1v10.5C60,75.2,60.5,75.6,61,75.6z" stroke="#f8f5e9" fill="#f8f5e9"/><path d="M22.1,75.6c0.6,0,1-0.4,1-1V61.1c0-0.6-0.4-1-1-1s-1,0.4-1,1v13.6C21.1,75.2,21.6,75.6,22.1,75.6z" stroke="#f8f5e9" fill="#f8f5e9"/><path d="M53.4,66.9c-0.6,0-1,0.4-1,1v19.4c0,0.6,0.4,1,1,1s1-0.4,1-1V67.9C54.4,67.3,54,66.9,53.4,66.9z" stroke="#f8f5e9" fill="#f8f5e9"/><path d="M76.6,60.1c-0.6,0-1,0.4-1,1v26.2c0,0.6,0.4,1,1,1s1-0.4,1-1V61.1C77.6,60.5,77.1,60.1,76.6,60.1z" stroke="#f8f5e9" fill="#f8f5e9"/><path d="M38,87.3v-22c0-0.6-0.4-1-1-1s-1,0.4-1,1v22c0,0.6,0.4,1,1,1S38,87.8,38,87.3z" stroke="#f8f5e9" fill="#f8f5e9"/></svg>
