<svg xmlns="http://www.w3.org/2000/svg" xmlns:xlink="http://www.w3.org/1999/xlink" version="1.1" x="0px" y="0px" viewBox="0 0 100 125" enable-background="new 0 0 100 100" xml:space="preserve"><g><path d="M85.23,64.78c-0.092,0.141-0.188,0.278-0.285,0.416c-3.553,4.939-10.438,6.064-15.379,2.512   c-6.514-4.684-15.293-4.684-21.808,0c-3.843,2.764-9.021,2.764-12.864,0c-7.019-5.045-16.581-4.617-23.119,1.035   c-0.801,0.691-0.889,1.9-0.197,2.701s1.9,0.889,2.701,0.197c5.198-4.494,12.801-4.835,18.379-0.823   c5.178,3.724,12.158,3.724,17.336,0c5.18-3.724,12.159-3.724,17.338,0c6.656,4.786,15.936,3.271,20.723-3.388   c0.131-0.184,0.26-0.37,0.383-0.56c0.578-0.886,0.328-2.072-0.559-2.649C86.994,63.644,85.807,63.894,85.23,64.78z" stroke="#f8f5e9" fill="#f8f5e9"/></g><g><path d="M85.23,45.822c-0.092,0.141-0.188,0.279-0.285,0.416c-3.553,4.94-10.438,6.066-15.379,2.514   c-6.514-4.684-15.293-4.684-21.808,0c-3.843,2.764-9.021,2.764-12.864,0c-7.019-5.046-16.581-4.618-23.119,1.035   c-0.801,0.691-0.889,1.9-0.197,2.7s1.9,0.888,2.701,0.196c5.198-4.494,12.801-4.834,18.379-0.822   c5.178,3.724,12.158,3.724,17.336,0c5.18-3.725,12.159-3.725,17.338,0c6.656,4.786,15.936,3.271,20.723-3.387   c0.131-0.184,0.26-0.371,0.383-0.561c0.578-0.887,0.328-2.072-0.559-2.65C86.994,44.686,85.807,44.938,85.23,45.822z" stroke="#f8f5e9" fill="#f8f5e9"/></g><g><path d="M85.23,26.865c-0.092,0.141-0.188,0.279-0.285,0.416c-3.553,4.94-10.438,6.066-15.379,2.514   c-6.514-4.686-15.293-4.686-21.808,0c-3.843,2.763-9.021,2.763-12.864,0c-7.019-5.047-16.581-4.617-23.119,1.034   c-0.801,0.692-0.889,1.901-0.197,2.701s1.9,0.888,2.701,0.196c5.198-4.494,12.801-4.834,18.379-0.823   c5.178,3.724,12.158,3.724,17.336,0c5.18-3.724,12.159-3.724,17.338,0c6.656,4.788,15.936,3.271,20.723-3.387   c0.131-0.183,0.26-0.37,0.383-0.56c0.578-0.887,0.328-2.073-0.559-2.65C86.994,25.729,85.807,25.979,85.23,26.865z" stroke="#f8f5e9" fill="#f8f5e9"/></g></svg>
