<svg xmlns="http://www.w3.org/2000/svg" xmlns:xlink="http://www.w3.org/1999/xlink" version="1.1" x="0px" y="0px" viewBox="0 0 100 125" style="enable-background:new 0 0 100 100;" xml:space="preserve"><path d="M79.4,29.1c-0.2-9.1-7.7-16.5-16.9-16.5c-6,0-11.6,3.2-14.6,8.4c-2.8-3.5-7-5.6-11.5-5.6c-7.1,0-13.2,5.1-14.4,12.1  c-6.4,1.1-11.1,6.5-11.1,13.1c0,7.3,5.9,13.2,13.2,13.2c2.8,0,5.6-0.9,7.8-2.6c2.8,6.7,9.4,11.1,16.8,11.1c7.7,0,14.5-4.8,17.1-11.9  c2.5,2.7,6,4.3,9.7,4.3c7.2,0,13.1-5.9,13.1-13.1C88.7,35.9,84.9,30.8,79.4,29.1z M75.5,52.8c-3.7,0-7.2-1.9-9.2-5  c-0.2-0.3-0.6-0.5-1-0.4c-0.4,0.1-0.7,0.4-0.8,0.7c-1.8,7.2-8.3,12.3-15.7,12.3c-7,0-13.2-4.5-15.4-11.1c-0.1-0.3-0.4-0.6-0.7-0.7  c-0.1,0-0.2,0-0.3,0c-0.2,0-0.5,0.1-0.7,0.3c-2.1,1.9-4.8,2.9-7.6,2.9c-6.2,0-11.2-5-11.2-11.2c0-5.8,4.3-10.6,10-11.2  c0.5,0,0.8-0.4,0.9-0.9c0.8-6.3,6.2-11.1,12.6-11.1c4.4,0,8.4,2.3,10.8,6c0.2,0.3,0.6,0.5,0.9,0.5c0.4,0,0.7-0.2,0.8-0.6  c2.4-5.3,7.7-8.7,13.6-8.7c8.2,0,14.9,6.7,14.9,14.9l0,0.3c0,0.5,0.3,0.9,0.8,1c5,1.2,8.5,5.7,8.5,10.8  C86.7,47.8,81.7,52.8,75.5,52.8z" stroke="#f8f5e9" fill="#f8f5e9"/><path d="M75.7,65.5c0-2-1.6-3.6-3.6-3.6s-3.6,1.6-3.6,3.6s1.6,3.6,3.6,3.6S75.7,67.5,75.7,65.5z M70.5,65.5c0-0.9,0.7-1.6,1.6-1.6  s1.6,0.7,1.6,1.6s-0.7,1.6-1.6,1.6S70.5,66.4,70.5,65.5z" stroke="#f8f5e9" fill="#f8f5e9"/><path d="M31.9,59.4c-2,0-3.6,1.6-3.6,3.6s1.6,3.6,3.6,3.6s3.6-1.6,3.6-3.6S33.8,59.4,31.9,59.4z M31.9,64.5c-0.9,0-1.6-0.7-1.6-1.6  s0.7-1.6,1.6-1.6s1.6,0.7,1.6,1.6S32.7,64.5,31.9,64.5z" stroke="#f8f5e9" fill="#f8f5e9"/><path d="M29.9,82.3c0,2,1.6,3.6,3.6,3.6s3.6-1.6,3.6-3.6s-1.6-3.6-3.6-3.6S29.9,80.3,29.9,82.3z M35,82.3c0,0.9-0.7,1.6-1.6,1.6  s-1.6-0.7-1.6-1.6s0.7-1.6,1.6-1.6S35,81.4,35,82.3z" stroke="#f8f5e9" fill="#f8f5e9"/><path d="M83.1,80.3c0-2-1.6-3.6-3.6-3.6s-3.6,1.6-3.6,3.6s1.6,3.6,3.6,3.6S83.1,82.3,83.1,80.3z M77.9,80.3c0-0.9,0.7-1.6,1.6-1.6  s1.6,0.7,1.6,1.6s-0.7,1.6-1.6,1.6S77.9,81.2,77.9,80.3z" stroke="#f8f5e9" fill="#f8f5e9"/><path d="M67.7,77.7c0-2.7-2.2-4.9-4.9-4.9c-2.7,0-4.9,2.2-4.9,4.9c0,2.7,2.2,4.9,4.9,4.9C65.4,82.6,67.7,80.4,67.7,77.7z M59.8,77.7  c0-1.6,1.3-2.9,2.9-2.9s2.9,1.3,2.9,2.9s-1.3,2.9-2.9,2.9S59.8,79.3,59.8,77.7z" stroke="#f8f5e9" fill="#f8f5e9"/><path d="M27.1,73.7c0-2.7-2.2-4.9-4.9-4.9c-2.7,0-4.9,2.2-4.9,4.9c0,2.7,2.2,4.9,4.9,4.9C24.9,78.7,27.1,76.5,27.1,73.7z M19.3,73.7  c0-1.6,1.3-2.9,2.9-2.9s2.9,1.3,2.9,2.9s-1.3,2.9-2.9,2.9S19.3,75.4,19.3,73.7z" stroke="#f8f5e9" fill="#f8f5e9"/><path d="M50.4,72.1c0-2.7-2.2-4.9-4.9-4.9c-2.7,0-4.9,2.2-4.9,4.9c0,2.7,2.2,4.9,4.9,4.9C48.2,77,50.4,74.8,50.4,72.1z M42.5,72.1  c0-1.6,1.3-2.9,2.9-2.9s2.9,1.3,2.9,2.9S47.1,75,45.5,75S42.5,73.7,42.5,72.1z" stroke="#f8f5e9" fill="#f8f5e9"/></svg>
