<svg xmlns="http://www.w3.org/2000/svg" xmlns:xlink="http://www.w3.org/1999/xlink" version="1.1" x="0px" y="0px" viewBox="0 0 100 125" style="enable-background:new 0 0 100 100;" xml:space="preserve"><path d="M50.2,72.4c11.7,0,21.2-9.5,21.2-21.2c0-11.7-9.5-21.2-21.2-21.2s-21.2,9.5-21.2,21.2C29.1,62.9,38.6,72.4,50.2,72.4z   M50.2,32.1c10.6,0,19.2,8.6,19.2,19.2s-8.6,19.2-19.2,19.2s-19.2-8.6-19.2-19.2S39.7,32.1,50.2,32.1z" stroke="#f8f5e9" fill="#f8f5e9"/><path d="M51.2,24.4v-9.3c0-0.6-0.4-1-1-1s-1,0.4-1,1v9.3c0,0.6,0.4,1,1,1S51.2,25,51.2,24.4z" stroke="#f8f5e9" fill="#f8f5e9"/><path d="M37,28.9c0.2,0,0.3,0,0.5-0.1c0.5-0.3,0.6-0.9,0.4-1.4l-4.6-8.1c-0.3-0.5-0.9-0.6-1.4-0.4c-0.5,0.3-0.6,0.9-0.4,1.4l4.6,8.1  C36.3,28.7,36.6,28.9,37,28.9z" stroke="#f8f5e9" fill="#f8f5e9"/><path d="M18.7,33.7l8,4.7c0.2,0.1,0.3,0.1,0.5,0.1c0.3,0,0.7-0.2,0.9-0.5c0.3-0.5,0.1-1.1-0.4-1.4l-8-4.7c-0.5-0.3-1.1-0.1-1.4,0.4  C18,32.8,18.2,33.4,18.7,33.7z" stroke="#f8f5e9" fill="#f8f5e9"/><path d="M14.1,51.6l9.3,0.2c0,0,0,0,0,0c0.5,0,1-0.4,1-1c0-0.6-0.4-1-1-1l-9.3-0.2c0,0,0,0,0,0c-0.5,0-1,0.4-1,1  C13.1,51.1,13.6,51.6,14.1,51.6z" stroke="#f8f5e9" fill="#f8f5e9"/><path d="M26.3,63.2l-8.2,4.5c-0.5,0.3-0.7,0.9-0.4,1.4c0.2,0.3,0.5,0.5,0.9,0.5c0.2,0,0.3,0,0.5-0.1l8.2-4.5  c0.5-0.3,0.7-0.9,0.4-1.4C27.4,63.1,26.7,63,26.3,63.2z" stroke="#f8f5e9" fill="#f8f5e9"/><path d="M30.8,82.8c0.2,0.1,0.3,0.1,0.5,0.1c0.3,0,0.7-0.2,0.9-0.5l4.9-7.9c0.3-0.5,0.1-1.1-0.3-1.4c-0.5-0.3-1.1-0.1-1.4,0.3  l-4.9,7.9C30.2,81.9,30.3,82.5,30.8,82.8z" stroke="#f8f5e9" fill="#f8f5e9"/><path d="M49.4,77c-0.5,0-1,0.4-1,1L48,87.3c0,0.6,0.4,1,1,1c0,0,0,0,0,0c0.5,0,1-0.4,1-1l0.3-9.3C50.4,77.5,49.9,77,49.4,77z" stroke="#f8f5e9" fill="#f8f5e9"/><path d="M62.3,74c-0.5,0.3-0.7,0.9-0.4,1.4l4.3,8.2c0.2,0.3,0.5,0.5,0.9,0.5c0.2,0,0.3,0,0.5-0.1c0.5-0.3,0.7-0.9,0.4-1.4l-4.3-8.2  C63.4,74,62.8,73.8,62.3,74z" stroke="#f8f5e9" fill="#f8f5e9"/><path d="M80.2,71.5c0.2,0.1,0.4,0.2,0.5,0.2c0.3,0,0.7-0.2,0.8-0.5c0.3-0.5,0.2-1.1-0.3-1.4l-7.8-5c-0.5-0.3-1.1-0.2-1.4,0.3  c-0.3,0.5-0.2,1.1,0.3,1.4L80.2,71.5z" stroke="#f8f5e9" fill="#f8f5e9"/><path d="M76,52.5c0,0.6,0.4,1,0.9,1l9.3,0.5c0,0,0,0,0.1,0c0.5,0,1-0.4,1-1c0-0.6-0.4-1-0.9-1l-9.3-0.5C76.5,51.5,76,52,76,52.5z" stroke="#f8f5e9" fill="#f8f5e9"/><path d="M73.3,39.6c0.2,0.3,0.5,0.5,0.9,0.5c0.2,0,0.3,0,0.5-0.1l8.3-4.2c0.5-0.2,0.7-0.9,0.4-1.3C83.1,34,82.5,33.8,82,34l-8.3,4.2  C73.2,38.5,73,39.1,73.3,39.6z" stroke="#f8f5e9" fill="#f8f5e9"/><path d="M65,29.9c0.3,0,0.6-0.2,0.8-0.4l5.1-7.8c0.3-0.5,0.2-1.1-0.3-1.4s-1.1-0.2-1.4,0.3l-5.1,7.8c-0.3,0.5-0.2,1.1,0.3,1.4  C64.7,29.8,64.8,29.9,65,29.9z" stroke="#f8f5e9" fill="#f8f5e9"/></svg>
